<mxfile host="app.diagrams.net" agent="Mozilla/5.0 (Windows NT 10.0; Win64; x64) AppleWebKit/537.36 (KHTML, like Gecko) Chrome/130.0.0.0 Safari/537.36" version="24.8.3">
  <diagram name="Page-1" id="7yY_kA9gd9Qw0ZEYXvrO">
    <mxGraphModel dx="847" dy="580" grid="1" gridSize="10" guides="1" tooltips="1" connect="1" arrows="1" fold="1" page="1" pageScale="1" pageWidth="850" pageHeight="1100" math="0" shadow="0">
      <root>
        <mxCell id="0" />
        <mxCell id="1" parent="0" />
        <mxCell id="ie0-aMVQ24yn6wTCqgOi-3" value="&lt;b&gt;Screen&lt;/b&gt;" style="rounded=1;arcSize=10;whiteSpace=wrap;html=1;align=center;" parent="1" vertex="1">
          <mxGeometry x="670" y="290" width="100" height="40" as="geometry" />
        </mxCell>
        <mxCell id="ie0-aMVQ24yn6wTCqgOi-4" value="&lt;b&gt;Ticket&lt;/b&gt;" style="rounded=1;arcSize=10;whiteSpace=wrap;html=1;align=center;" parent="1" vertex="1">
          <mxGeometry x="75" y="660" width="100" height="40" as="geometry" />
        </mxCell>
        <mxCell id="ie0-aMVQ24yn6wTCqgOi-5" value="&lt;b&gt;Customer&lt;/b&gt;" style="rounded=1;arcSize=10;whiteSpace=wrap;html=1;align=center;" parent="1" vertex="1">
          <mxGeometry x="580" y="760" width="100" height="40" as="geometry" />
        </mxCell>
        <mxCell id="ie0-aMVQ24yn6wTCqgOi-12" value="Screen_ID" style="ellipse;whiteSpace=wrap;html=1;align=center;fontStyle=4;" parent="1" vertex="1">
          <mxGeometry x="690" y="200" width="70" height="40" as="geometry" />
        </mxCell>
        <mxCell id="ie0-aMVQ24yn6wTCqgOi-13" value="Screen_num" style="ellipse;whiteSpace=wrap;html=1;align=center;" parent="1" vertex="1">
          <mxGeometry x="770" y="210" width="70" height="40" as="geometry" />
        </mxCell>
        <mxCell id="ie0-aMVQ24yn6wTCqgOi-25" value="Seat_Capacity" style="ellipse;whiteSpace=wrap;html=1;align=center;" parent="1" vertex="1">
          <mxGeometry x="590" y="210" width="80" height="40" as="geometry" />
        </mxCell>
        <mxCell id="ie0-aMVQ24yn6wTCqgOi-28" value="" style="endArrow=none;html=1;rounded=0;exitX=0.5;exitY=1;exitDx=0;exitDy=0;entryX=0.5;entryY=0;entryDx=0;entryDy=0;" parent="1" source="ie0-aMVQ24yn6wTCqgOi-12" target="ie0-aMVQ24yn6wTCqgOi-3" edge="1">
          <mxGeometry relative="1" as="geometry">
            <mxPoint x="420" y="370" as="sourcePoint" />
            <mxPoint x="580" y="370" as="targetPoint" />
          </mxGeometry>
        </mxCell>
        <mxCell id="ie0-aMVQ24yn6wTCqgOi-32" value="" style="endArrow=none;html=1;rounded=0;entryX=0.5;entryY=1;entryDx=0;entryDy=0;exitX=1;exitY=0;exitDx=0;exitDy=0;" parent="1" source="ie0-aMVQ24yn6wTCqgOi-3" target="ie0-aMVQ24yn6wTCqgOi-13" edge="1">
          <mxGeometry relative="1" as="geometry">
            <mxPoint x="750" y="290" as="sourcePoint" />
            <mxPoint x="580" y="370" as="targetPoint" />
          </mxGeometry>
        </mxCell>
        <mxCell id="ie0-aMVQ24yn6wTCqgOi-33" value="" style="endArrow=none;html=1;rounded=0;exitX=0.5;exitY=1;exitDx=0;exitDy=0;entryX=0;entryY=0;entryDx=0;entryDy=0;" parent="1" source="ie0-aMVQ24yn6wTCqgOi-25" target="ie0-aMVQ24yn6wTCqgOi-3" edge="1">
          <mxGeometry relative="1" as="geometry">
            <mxPoint x="420" y="370" as="sourcePoint" />
            <mxPoint x="580" y="370" as="targetPoint" />
          </mxGeometry>
        </mxCell>
        <mxCell id="ie0-aMVQ24yn6wTCqgOi-49" value="Customer_ID" style="ellipse;whiteSpace=wrap;html=1;align=center;fontStyle=4;" parent="1" vertex="1">
          <mxGeometry x="590" y="830" width="75" height="40" as="geometry" />
        </mxCell>
        <mxCell id="ie0-aMVQ24yn6wTCqgOi-95" value="&lt;b&gt;Movie&lt;/b&gt;" style="rounded=1;arcSize=10;whiteSpace=wrap;html=1;align=center;" parent="1" vertex="1">
          <mxGeometry x="130" y="280" width="100" height="40" as="geometry" />
        </mxCell>
        <mxCell id="ie0-aMVQ24yn6wTCqgOi-96" value="Duration" style="ellipse;whiteSpace=wrap;html=1;align=center;" parent="1" vertex="1">
          <mxGeometry x="230" y="210" width="70" height="40" as="geometry" />
        </mxCell>
        <mxCell id="ie0-aMVQ24yn6wTCqgOi-97" value="Rating" style="ellipse;whiteSpace=wrap;html=1;align=center;" parent="1" vertex="1">
          <mxGeometry x="60" y="210" width="70" height="40" as="geometry" />
        </mxCell>
        <mxCell id="ie0-aMVQ24yn6wTCqgOi-98" value="Movie_ID" style="ellipse;whiteSpace=wrap;html=1;align=center;fontStyle=4;" parent="1" vertex="1">
          <mxGeometry x="140" y="200" width="70" height="40" as="geometry" />
        </mxCell>
        <mxCell id="ie0-aMVQ24yn6wTCqgOi-99" value="Title" style="ellipse;whiteSpace=wrap;html=1;align=center;" parent="1" vertex="1">
          <mxGeometry y="260" width="75" height="40" as="geometry" />
        </mxCell>
        <mxCell id="ie0-aMVQ24yn6wTCqgOi-101" value="" style="endArrow=none;html=1;rounded=0;exitX=0.5;exitY=1;exitDx=0;exitDy=0;entryX=0.5;entryY=0;entryDx=0;entryDy=0;" parent="1" source="ie0-aMVQ24yn6wTCqgOi-98" target="ie0-aMVQ24yn6wTCqgOi-95" edge="1">
          <mxGeometry relative="1" as="geometry">
            <mxPoint x="310" y="370" as="sourcePoint" />
            <mxPoint x="470" y="370" as="targetPoint" />
          </mxGeometry>
        </mxCell>
        <mxCell id="ie0-aMVQ24yn6wTCqgOi-102" value="" style="endArrow=none;html=1;rounded=0;exitX=0;exitY=1;exitDx=0;exitDy=0;entryX=0.75;entryY=0;entryDx=0;entryDy=0;" parent="1" source="ie0-aMVQ24yn6wTCqgOi-96" target="ie0-aMVQ24yn6wTCqgOi-95" edge="1">
          <mxGeometry relative="1" as="geometry">
            <mxPoint x="310" y="370" as="sourcePoint" />
            <mxPoint x="470" y="370" as="targetPoint" />
          </mxGeometry>
        </mxCell>
        <mxCell id="ie0-aMVQ24yn6wTCqgOi-103" value="" style="endArrow=none;html=1;rounded=0;entryX=0;entryY=1;entryDx=0;entryDy=0;exitX=1;exitY=0.5;exitDx=0;exitDy=0;" parent="1" source="46AwzzbZPbfPcskhHzXD-44" target="ie0-aMVQ24yn6wTCqgOi-95" edge="1">
          <mxGeometry relative="1" as="geometry">
            <mxPoint x="100" y="340" as="sourcePoint" />
            <mxPoint x="470" y="370" as="targetPoint" />
          </mxGeometry>
        </mxCell>
        <mxCell id="ie0-aMVQ24yn6wTCqgOi-104" value="" style="endArrow=none;html=1;rounded=0;exitX=1;exitY=0.5;exitDx=0;exitDy=0;entryX=0;entryY=0.25;entryDx=0;entryDy=0;" parent="1" source="ie0-aMVQ24yn6wTCqgOi-99" target="ie0-aMVQ24yn6wTCqgOi-95" edge="1">
          <mxGeometry relative="1" as="geometry">
            <mxPoint x="310" y="370" as="sourcePoint" />
            <mxPoint x="470" y="370" as="targetPoint" />
          </mxGeometry>
        </mxCell>
        <mxCell id="ie0-aMVQ24yn6wTCqgOi-105" value="" style="endArrow=none;html=1;rounded=0;exitX=1;exitY=1;exitDx=0;exitDy=0;entryX=0.25;entryY=0;entryDx=0;entryDy=0;" parent="1" source="ie0-aMVQ24yn6wTCqgOi-97" target="ie0-aMVQ24yn6wTCqgOi-95" edge="1">
          <mxGeometry relative="1" as="geometry">
            <mxPoint x="310" y="370" as="sourcePoint" />
            <mxPoint x="470" y="370" as="targetPoint" />
          </mxGeometry>
        </mxCell>
        <mxCell id="ie0-aMVQ24yn6wTCqgOi-139" value="Name" style="ellipse;whiteSpace=wrap;html=1;align=center;" parent="1" vertex="1">
          <mxGeometry x="680" y="830" width="70" height="40" as="geometry" />
        </mxCell>
        <mxCell id="ie0-aMVQ24yn6wTCqgOi-140" style="edgeStyle=orthogonalEdgeStyle;rounded=0;orthogonalLoop=1;jettySize=auto;html=1;exitX=0.5;exitY=1;exitDx=0;exitDy=0;" parent="1" source="ie0-aMVQ24yn6wTCqgOi-5" target="ie0-aMVQ24yn6wTCqgOi-5" edge="1">
          <mxGeometry relative="1" as="geometry" />
        </mxCell>
        <mxCell id="ie0-aMVQ24yn6wTCqgOi-141" value="" style="endArrow=none;html=1;rounded=0;entryX=0.5;entryY=0;entryDx=0;entryDy=0;exitX=0.5;exitY=1;exitDx=0;exitDy=0;" parent="1" source="ie0-aMVQ24yn6wTCqgOi-5" target="ie0-aMVQ24yn6wTCqgOi-49" edge="1">
          <mxGeometry relative="1" as="geometry">
            <mxPoint x="620" y="810" as="sourcePoint" />
            <mxPoint x="637" y="866" as="targetPoint" />
          </mxGeometry>
        </mxCell>
        <mxCell id="ie0-aMVQ24yn6wTCqgOi-142" value="" style="endArrow=none;html=1;rounded=0;exitX=1;exitY=1;exitDx=0;exitDy=0;entryX=0;entryY=0;entryDx=0;entryDy=0;" parent="1" source="ie0-aMVQ24yn6wTCqgOi-5" target="ie0-aMVQ24yn6wTCqgOi-139" edge="1">
          <mxGeometry relative="1" as="geometry">
            <mxPoint x="700" y="800" as="sourcePoint" />
            <mxPoint x="737" y="856" as="targetPoint" />
          </mxGeometry>
        </mxCell>
        <mxCell id="ie0-aMVQ24yn6wTCqgOi-143" value="Ticket_ID" style="ellipse;whiteSpace=wrap;html=1;align=center;fontStyle=4;" parent="1" vertex="1">
          <mxGeometry x="90" y="740" width="70" height="40" as="geometry" />
        </mxCell>
        <mxCell id="ie0-aMVQ24yn6wTCqgOi-145" value="Seat_num" style="ellipse;whiteSpace=wrap;html=1;align=center;" parent="1" vertex="1">
          <mxGeometry x="175" y="720" width="70" height="40" as="geometry" />
        </mxCell>
        <mxCell id="ie0-aMVQ24yn6wTCqgOi-146" value="Price" style="ellipse;whiteSpace=wrap;html=1;align=center;" parent="1" vertex="1">
          <mxGeometry x="5" y="610" width="70" height="40" as="geometry" />
        </mxCell>
        <mxCell id="ie0-aMVQ24yn6wTCqgOi-147" value="" style="endArrow=none;html=1;rounded=0;entryX=0.5;entryY=0;entryDx=0;entryDy=0;exitX=1;exitY=1;exitDx=0;exitDy=0;" parent="1" source="ie0-aMVQ24yn6wTCqgOi-4" target="ie0-aMVQ24yn6wTCqgOi-145" edge="1">
          <mxGeometry relative="1" as="geometry">
            <mxPoint x="45" y="690" as="sourcePoint" />
            <mxPoint x="205" y="690" as="targetPoint" />
          </mxGeometry>
        </mxCell>
        <mxCell id="ie0-aMVQ24yn6wTCqgOi-149" value="" style="endArrow=none;html=1;rounded=0;entryX=0;entryY=0;entryDx=0;entryDy=0;exitX=1;exitY=1;exitDx=0;exitDy=0;" parent="1" source="ie0-aMVQ24yn6wTCqgOi-146" target="ie0-aMVQ24yn6wTCqgOi-4" edge="1">
          <mxGeometry relative="1" as="geometry">
            <mxPoint x="70" y="650" as="sourcePoint" />
            <mxPoint x="205" y="690" as="targetPoint" />
          </mxGeometry>
        </mxCell>
        <mxCell id="ie0-aMVQ24yn6wTCqgOi-150" value="" style="endArrow=none;html=1;rounded=0;exitX=0.5;exitY=0;exitDx=0;exitDy=0;entryX=0.5;entryY=1;entryDx=0;entryDy=0;" parent="1" source="ie0-aMVQ24yn6wTCqgOi-143" target="ie0-aMVQ24yn6wTCqgOi-4" edge="1">
          <mxGeometry relative="1" as="geometry">
            <mxPoint x="45" y="690" as="sourcePoint" />
            <mxPoint x="205" y="690" as="targetPoint" />
          </mxGeometry>
        </mxCell>
        <mxCell id="46AwzzbZPbfPcskhHzXD-1" value="&lt;b&gt;Cinema&lt;/b&gt;" style="rounded=1;arcSize=10;whiteSpace=wrap;html=1;align=center;" vertex="1" parent="1">
          <mxGeometry x="375" y="70" width="100" height="40" as="geometry" />
        </mxCell>
        <mxCell id="46AwzzbZPbfPcskhHzXD-2" value="Cinema_ID" style="ellipse;whiteSpace=wrap;html=1;align=center;fontStyle=4;" vertex="1" parent="1">
          <mxGeometry x="390" width="70" height="40" as="geometry" />
        </mxCell>
        <mxCell id="46AwzzbZPbfPcskhHzXD-14" value="&lt;b&gt;Show&lt;/b&gt;" style="rounded=1;arcSize=10;whiteSpace=wrap;html=1;align=center;" vertex="1" parent="1">
          <mxGeometry x="355" y="450" width="100" height="40" as="geometry" />
        </mxCell>
        <mxCell id="46AwzzbZPbfPcskhHzXD-15" value="Show_ID" style="ellipse;whiteSpace=wrap;html=1;align=center;fontStyle=4;" vertex="1" parent="1">
          <mxGeometry x="370" y="380" width="70" height="40" as="geometry" />
        </mxCell>
        <mxCell id="46AwzzbZPbfPcskhHzXD-17" value="Date" style="ellipse;whiteSpace=wrap;html=1;align=center;" vertex="1" parent="1">
          <mxGeometry x="285" y="380" width="70" height="40" as="geometry" />
        </mxCell>
        <mxCell id="46AwzzbZPbfPcskhHzXD-19" value="Start_time" style="ellipse;whiteSpace=wrap;html=1;align=center;" vertex="1" parent="1">
          <mxGeometry x="280" y="510" width="70" height="40" as="geometry" />
        </mxCell>
        <mxCell id="46AwzzbZPbfPcskhHzXD-20" value="" style="endArrow=none;html=1;rounded=0;exitX=1;exitY=0;exitDx=0;exitDy=0;entryX=0;entryY=1;entryDx=0;entryDy=0;" edge="1" parent="1" source="46AwzzbZPbfPcskhHzXD-19" target="46AwzzbZPbfPcskhHzXD-14">
          <mxGeometry relative="1" as="geometry">
            <mxPoint x="355" y="520" as="sourcePoint" />
            <mxPoint x="515" y="520" as="targetPoint" />
          </mxGeometry>
        </mxCell>
        <mxCell id="46AwzzbZPbfPcskhHzXD-23" value="" style="endArrow=none;html=1;rounded=0;exitX=1;exitY=1;exitDx=0;exitDy=0;entryX=0.25;entryY=0;entryDx=0;entryDy=0;" edge="1" parent="1" source="46AwzzbZPbfPcskhHzXD-17" target="46AwzzbZPbfPcskhHzXD-14">
          <mxGeometry relative="1" as="geometry">
            <mxPoint x="355" y="520" as="sourcePoint" />
            <mxPoint x="344" y="440" as="targetPoint" />
          </mxGeometry>
        </mxCell>
        <mxCell id="46AwzzbZPbfPcskhHzXD-24" value="" style="endArrow=none;html=1;rounded=0;exitX=0.5;exitY=0;exitDx=0;exitDy=0;entryX=0.5;entryY=1;entryDx=0;entryDy=0;" edge="1" parent="1" source="46AwzzbZPbfPcskhHzXD-14" target="46AwzzbZPbfPcskhHzXD-15">
          <mxGeometry relative="1" as="geometry">
            <mxPoint x="430" y="430" as="sourcePoint" />
            <mxPoint x="480" y="410" as="targetPoint" />
          </mxGeometry>
        </mxCell>
        <mxCell id="46AwzzbZPbfPcskhHzXD-25" value="Name" style="ellipse;whiteSpace=wrap;html=1;align=center;" vertex="1" parent="1">
          <mxGeometry x="475" y="10" width="70" height="40" as="geometry" />
        </mxCell>
        <mxCell id="46AwzzbZPbfPcskhHzXD-26" value="location" style="ellipse;whiteSpace=wrap;html=1;align=center;" vertex="1" parent="1">
          <mxGeometry x="305" y="20" width="70" height="40" as="geometry" />
        </mxCell>
        <mxCell id="46AwzzbZPbfPcskhHzXD-27" value="num_of_screen" style="ellipse;whiteSpace=wrap;html=1;align=center;" vertex="1" parent="1">
          <mxGeometry x="510" y="70" width="90" height="40" as="geometry" />
        </mxCell>
        <mxCell id="46AwzzbZPbfPcskhHzXD-28" value="Capacity" style="ellipse;whiteSpace=wrap;html=1;align=center;" vertex="1" parent="1">
          <mxGeometry x="280" y="70" width="70" height="40" as="geometry" />
        </mxCell>
        <mxCell id="46AwzzbZPbfPcskhHzXD-29" value="" style="endArrow=none;html=1;rounded=0;entryX=0;entryY=0.5;entryDx=0;entryDy=0;exitX=1;exitY=0.5;exitDx=0;exitDy=0;" edge="1" parent="1" source="46AwzzbZPbfPcskhHzXD-1" target="46AwzzbZPbfPcskhHzXD-27">
          <mxGeometry relative="1" as="geometry">
            <mxPoint x="320" y="160" as="sourcePoint" />
            <mxPoint x="480" y="160" as="targetPoint" />
          </mxGeometry>
        </mxCell>
        <mxCell id="46AwzzbZPbfPcskhHzXD-30" value="" style="endArrow=none;html=1;rounded=0;exitX=0;exitY=1;exitDx=0;exitDy=0;entryX=1;entryY=0;entryDx=0;entryDy=0;" edge="1" parent="1" source="46AwzzbZPbfPcskhHzXD-25" target="46AwzzbZPbfPcskhHzXD-1">
          <mxGeometry relative="1" as="geometry">
            <mxPoint x="315" y="160" as="sourcePoint" />
            <mxPoint x="475" y="160" as="targetPoint" />
          </mxGeometry>
        </mxCell>
        <mxCell id="46AwzzbZPbfPcskhHzXD-31" value="" style="endArrow=none;html=1;rounded=0;exitX=1;exitY=0.5;exitDx=0;exitDy=0;entryX=0;entryY=0.5;entryDx=0;entryDy=0;" edge="1" parent="1" source="46AwzzbZPbfPcskhHzXD-28" target="46AwzzbZPbfPcskhHzXD-1">
          <mxGeometry relative="1" as="geometry">
            <mxPoint x="320" y="160" as="sourcePoint" />
            <mxPoint x="480" y="160" as="targetPoint" />
          </mxGeometry>
        </mxCell>
        <mxCell id="46AwzzbZPbfPcskhHzXD-32" value="" style="endArrow=none;html=1;rounded=0;exitX=1;exitY=1;exitDx=0;exitDy=0;entryX=0;entryY=0;entryDx=0;entryDy=0;" edge="1" parent="1" source="46AwzzbZPbfPcskhHzXD-26" target="46AwzzbZPbfPcskhHzXD-1">
          <mxGeometry relative="1" as="geometry">
            <mxPoint x="320" y="160" as="sourcePoint" />
            <mxPoint x="480" y="160" as="targetPoint" />
          </mxGeometry>
        </mxCell>
        <mxCell id="46AwzzbZPbfPcskhHzXD-33" value="" style="endArrow=none;html=1;rounded=0;exitX=0.5;exitY=1;exitDx=0;exitDy=0;entryX=0.5;entryY=0;entryDx=0;entryDy=0;" edge="1" parent="1" source="46AwzzbZPbfPcskhHzXD-2" target="46AwzzbZPbfPcskhHzXD-1">
          <mxGeometry relative="1" as="geometry">
            <mxPoint x="320" y="160" as="sourcePoint" />
            <mxPoint x="480" y="160" as="targetPoint" />
          </mxGeometry>
        </mxCell>
        <mxCell id="46AwzzbZPbfPcskhHzXD-34" value="End_time" style="ellipse;whiteSpace=wrap;html=1;align=center;" vertex="1" parent="1">
          <mxGeometry x="460" y="500" width="70" height="40" as="geometry" />
        </mxCell>
        <mxCell id="46AwzzbZPbfPcskhHzXD-35" value="" style="endArrow=none;html=1;rounded=0;exitX=1;exitY=1;exitDx=0;exitDy=0;entryX=0;entryY=0;entryDx=0;entryDy=0;" edge="1" parent="1" source="46AwzzbZPbfPcskhHzXD-14" target="46AwzzbZPbfPcskhHzXD-34">
          <mxGeometry relative="1" as="geometry">
            <mxPoint x="485" y="510" as="sourcePoint" />
            <mxPoint x="525" y="490" as="targetPoint" />
          </mxGeometry>
        </mxCell>
        <mxCell id="46AwzzbZPbfPcskhHzXD-36" value="Date&amp;amp;Time" style="ellipse;whiteSpace=wrap;html=1;align=center;" vertex="1" parent="1">
          <mxGeometry x="10" y="710" width="70" height="40" as="geometry" />
        </mxCell>
        <mxCell id="46AwzzbZPbfPcskhHzXD-37" value="" style="endArrow=none;html=1;rounded=0;exitX=1;exitY=0;exitDx=0;exitDy=0;entryX=0;entryY=1;entryDx=0;entryDy=0;" edge="1" parent="1" source="46AwzzbZPbfPcskhHzXD-36" target="ie0-aMVQ24yn6wTCqgOi-4">
          <mxGeometry relative="1" as="geometry">
            <mxPoint x="40" y="790" as="sourcePoint" />
            <mxPoint x="40" y="750" as="targetPoint" />
          </mxGeometry>
        </mxCell>
        <mxCell id="46AwzzbZPbfPcskhHzXD-38" value="Lname" style="ellipse;whiteSpace=wrap;html=1;align=center;" vertex="1" parent="1">
          <mxGeometry x="650" y="890" width="60" height="40" as="geometry" />
        </mxCell>
        <mxCell id="46AwzzbZPbfPcskhHzXD-39" value="Fname" style="ellipse;whiteSpace=wrap;html=1;align=center;" vertex="1" parent="1">
          <mxGeometry x="720" y="890" width="60" height="40" as="geometry" />
        </mxCell>
        <mxCell id="46AwzzbZPbfPcskhHzXD-40" value="" style="endArrow=none;html=1;rounded=0;entryX=0.5;entryY=0;entryDx=0;entryDy=0;exitX=0;exitY=1;exitDx=0;exitDy=0;" edge="1" parent="1" source="ie0-aMVQ24yn6wTCqgOi-139" target="46AwzzbZPbfPcskhHzXD-38">
          <mxGeometry relative="1" as="geometry">
            <mxPoint x="690" y="880" as="sourcePoint" />
            <mxPoint x="688" y="910" as="targetPoint" />
          </mxGeometry>
        </mxCell>
        <mxCell id="46AwzzbZPbfPcskhHzXD-41" value="" style="endArrow=none;html=1;rounded=0;entryX=0.5;entryY=0;entryDx=0;entryDy=0;exitX=1;exitY=1;exitDx=0;exitDy=0;" edge="1" parent="1" source="ie0-aMVQ24yn6wTCqgOi-139" target="46AwzzbZPbfPcskhHzXD-39">
          <mxGeometry relative="1" as="geometry">
            <mxPoint x="750" y="890" as="sourcePoint" />
            <mxPoint x="740" y="936" as="targetPoint" />
          </mxGeometry>
        </mxCell>
        <mxCell id="46AwzzbZPbfPcskhHzXD-42" value="Phone" style="ellipse;whiteSpace=wrap;html=1;align=center;" vertex="1" parent="1">
          <mxGeometry x="720" y="760" width="60" height="40" as="geometry" />
        </mxCell>
        <mxCell id="46AwzzbZPbfPcskhHzXD-43" value="" style="endArrow=none;html=1;rounded=0;exitX=1;exitY=0.5;exitDx=0;exitDy=0;entryX=0;entryY=0.5;entryDx=0;entryDy=0;" edge="1" parent="1" source="ie0-aMVQ24yn6wTCqgOi-5" target="46AwzzbZPbfPcskhHzXD-42">
          <mxGeometry relative="1" as="geometry">
            <mxPoint x="580" y="860" as="sourcePoint" />
            <mxPoint x="740" y="860" as="targetPoint" />
          </mxGeometry>
        </mxCell>
        <mxCell id="46AwzzbZPbfPcskhHzXD-44" value="Genre" style="ellipse;shape=doubleEllipse;margin=3;whiteSpace=wrap;html=1;align=center;" vertex="1" parent="1">
          <mxGeometry x="10" y="310" width="70" height="40" as="geometry" />
        </mxCell>
        <mxCell id="46AwzzbZPbfPcskhHzXD-45" value="Discount" style="ellipse;shape=doubleEllipse;margin=3;whiteSpace=wrap;html=1;align=center;" vertex="1" parent="1">
          <mxGeometry x="80" y="590" width="70" height="40" as="geometry" />
        </mxCell>
        <mxCell id="46AwzzbZPbfPcskhHzXD-46" value="" style="endArrow=none;html=1;rounded=0;entryX=0.5;entryY=0;entryDx=0;entryDy=0;exitX=0.5;exitY=1;exitDx=0;exitDy=0;" edge="1" parent="1" source="46AwzzbZPbfPcskhHzXD-45" target="ie0-aMVQ24yn6wTCqgOi-4">
          <mxGeometry relative="1" as="geometry">
            <mxPoint x="200" y="610" as="sourcePoint" />
            <mxPoint x="210" y="626" as="targetPoint" />
          </mxGeometry>
        </mxCell>
        <mxCell id="46AwzzbZPbfPcskhHzXD-47" value="&lt;b&gt;Has&lt;/b&gt;" style="shape=rhombus;perimeter=rhombusPerimeter;whiteSpace=wrap;html=1;align=center;" vertex="1" parent="1">
          <mxGeometry x="360" y="280" width="125" height="60" as="geometry" />
        </mxCell>
        <mxCell id="46AwzzbZPbfPcskhHzXD-55" value="" style="endArrow=none;html=1;rounded=0;entryX=0;entryY=0.5;entryDx=0;entryDy=0;exitX=1;exitY=0.5;exitDx=0;exitDy=0;" edge="1" parent="1" source="46AwzzbZPbfPcskhHzXD-47" target="ie0-aMVQ24yn6wTCqgOi-3">
          <mxGeometry relative="1" as="geometry">
            <mxPoint x="410" y="230" as="sourcePoint" />
            <mxPoint x="570" y="230" as="targetPoint" />
          </mxGeometry>
        </mxCell>
        <mxCell id="46AwzzbZPbfPcskhHzXD-56" value="N" style="resizable=0;html=1;whiteSpace=wrap;align=right;verticalAlign=bottom;" connectable="0" vertex="1" parent="46AwzzbZPbfPcskhHzXD-55">
          <mxGeometry x="1" relative="1" as="geometry" />
        </mxCell>
        <mxCell id="46AwzzbZPbfPcskhHzXD-57" value="" style="endArrow=none;html=1;rounded=0;entryX=0.5;entryY=1;entryDx=0;entryDy=0;exitX=0.5;exitY=0;exitDx=0;exitDy=0;" edge="1" parent="1" source="46AwzzbZPbfPcskhHzXD-47" target="46AwzzbZPbfPcskhHzXD-1">
          <mxGeometry relative="1" as="geometry">
            <mxPoint x="410" y="230" as="sourcePoint" />
            <mxPoint x="570" y="230" as="targetPoint" />
          </mxGeometry>
        </mxCell>
        <mxCell id="46AwzzbZPbfPcskhHzXD-58" value="1" style="resizable=0;html=1;whiteSpace=wrap;align=right;verticalAlign=bottom;" connectable="0" vertex="1" parent="46AwzzbZPbfPcskhHzXD-57">
          <mxGeometry x="1" relative="1" as="geometry">
            <mxPoint y="20" as="offset" />
          </mxGeometry>
        </mxCell>
        <mxCell id="46AwzzbZPbfPcskhHzXD-59" value="&lt;b&gt;Has&lt;/b&gt;" style="shape=rhombus;perimeter=rhombusPerimeter;whiteSpace=wrap;html=1;align=center;" vertex="1" parent="1">
          <mxGeometry x="660" y="440" width="120" height="60" as="geometry" />
        </mxCell>
        <mxCell id="46AwzzbZPbfPcskhHzXD-60" value="" style="endArrow=none;html=1;rounded=0;entryX=1;entryY=0.5;entryDx=0;entryDy=0;exitX=0;exitY=0.5;exitDx=0;exitDy=0;" edge="1" parent="1" source="46AwzzbZPbfPcskhHzXD-59" target="46AwzzbZPbfPcskhHzXD-14">
          <mxGeometry relative="1" as="geometry">
            <mxPoint x="640" y="480" as="sourcePoint" />
            <mxPoint x="670" y="580" as="targetPoint" />
          </mxGeometry>
        </mxCell>
        <mxCell id="46AwzzbZPbfPcskhHzXD-61" value="N" style="resizable=0;html=1;whiteSpace=wrap;align=right;verticalAlign=bottom;" connectable="0" vertex="1" parent="46AwzzbZPbfPcskhHzXD-60">
          <mxGeometry x="1" relative="1" as="geometry">
            <mxPoint x="20" as="offset" />
          </mxGeometry>
        </mxCell>
        <mxCell id="46AwzzbZPbfPcskhHzXD-62" value="" style="endArrow=none;html=1;rounded=0;entryX=0.5;entryY=1;entryDx=0;entryDy=0;exitX=0.5;exitY=0;exitDx=0;exitDy=0;" edge="1" parent="1" source="46AwzzbZPbfPcskhHzXD-59" target="ie0-aMVQ24yn6wTCqgOi-3">
          <mxGeometry relative="1" as="geometry">
            <mxPoint x="410" y="500" as="sourcePoint" />
            <mxPoint x="425" y="380" as="targetPoint" />
          </mxGeometry>
        </mxCell>
        <mxCell id="46AwzzbZPbfPcskhHzXD-63" value="1" style="resizable=0;html=1;whiteSpace=wrap;align=right;verticalAlign=bottom;" connectable="0" vertex="1" parent="46AwzzbZPbfPcskhHzXD-62">
          <mxGeometry x="1" relative="1" as="geometry">
            <mxPoint y="20" as="offset" />
          </mxGeometry>
        </mxCell>
        <mxCell id="46AwzzbZPbfPcskhHzXD-64" value="&lt;b&gt;Show_in&lt;/b&gt;" style="shape=rhombus;perimeter=rhombusPerimeter;whiteSpace=wrap;html=1;align=center;" vertex="1" parent="1">
          <mxGeometry x="120" y="440" width="120" height="60" as="geometry" />
        </mxCell>
        <mxCell id="46AwzzbZPbfPcskhHzXD-65" value="" style="endArrow=none;html=1;rounded=0;exitX=1;exitY=0.5;exitDx=0;exitDy=0;entryX=0;entryY=0.5;entryDx=0;entryDy=0;" edge="1" parent="1" source="46AwzzbZPbfPcskhHzXD-64" target="46AwzzbZPbfPcskhHzXD-14">
          <mxGeometry relative="1" as="geometry">
            <mxPoint x="380" y="690" as="sourcePoint" />
            <mxPoint x="310" y="460" as="targetPoint" />
          </mxGeometry>
        </mxCell>
        <mxCell id="46AwzzbZPbfPcskhHzXD-66" value="N" style="resizable=0;html=1;whiteSpace=wrap;align=right;verticalAlign=bottom;" connectable="0" vertex="1" parent="46AwzzbZPbfPcskhHzXD-65">
          <mxGeometry x="1" relative="1" as="geometry">
            <mxPoint x="-10" as="offset" />
          </mxGeometry>
        </mxCell>
        <mxCell id="46AwzzbZPbfPcskhHzXD-67" value="" style="endArrow=none;html=1;rounded=0;entryX=0.5;entryY=1;entryDx=0;entryDy=0;exitX=0.5;exitY=0;exitDx=0;exitDy=0;" edge="1" parent="1" source="46AwzzbZPbfPcskhHzXD-64" target="ie0-aMVQ24yn6wTCqgOi-95">
          <mxGeometry relative="1" as="geometry">
            <mxPoint x="380" y="460" as="sourcePoint" />
            <mxPoint x="540" y="460" as="targetPoint" />
          </mxGeometry>
        </mxCell>
        <mxCell id="46AwzzbZPbfPcskhHzXD-68" value="1" style="resizable=0;html=1;whiteSpace=wrap;align=right;verticalAlign=bottom;" connectable="0" vertex="1" parent="46AwzzbZPbfPcskhHzXD-67">
          <mxGeometry x="1" relative="1" as="geometry">
            <mxPoint x="-5" y="20" as="offset" />
          </mxGeometry>
        </mxCell>
        <mxCell id="46AwzzbZPbfPcskhHzXD-69" value="Has_Ticket" style="shape=rhombus;perimeter=rhombusPerimeter;whiteSpace=wrap;html=1;align=center;" vertex="1" parent="1">
          <mxGeometry x="360" y="650" width="90" height="60" as="geometry" />
        </mxCell>
        <mxCell id="46AwzzbZPbfPcskhHzXD-70" value="" style="endArrow=none;html=1;rounded=0;entryX=0.5;entryY=1;entryDx=0;entryDy=0;exitX=0.5;exitY=0;exitDx=0;exitDy=0;" edge="1" parent="1" source="46AwzzbZPbfPcskhHzXD-69" target="46AwzzbZPbfPcskhHzXD-14">
          <mxGeometry relative="1" as="geometry">
            <mxPoint x="390" y="640" as="sourcePoint" />
            <mxPoint x="400" y="690" as="targetPoint" />
          </mxGeometry>
        </mxCell>
        <mxCell id="46AwzzbZPbfPcskhHzXD-71" value="1" style="resizable=0;html=1;whiteSpace=wrap;align=right;verticalAlign=bottom;" connectable="0" vertex="1" parent="46AwzzbZPbfPcskhHzXD-70">
          <mxGeometry x="1" relative="1" as="geometry">
            <mxPoint x="-5" y="20" as="offset" />
          </mxGeometry>
        </mxCell>
        <mxCell id="46AwzzbZPbfPcskhHzXD-72" value="" style="endArrow=none;html=1;rounded=0;entryX=1;entryY=0.5;entryDx=0;entryDy=0;exitX=0;exitY=0.5;exitDx=0;exitDy=0;" edge="1" parent="1" source="46AwzzbZPbfPcskhHzXD-69" target="ie0-aMVQ24yn6wTCqgOi-4">
          <mxGeometry relative="1" as="geometry">
            <mxPoint x="340" y="610" as="sourcePoint" />
            <mxPoint x="500" y="610" as="targetPoint" />
          </mxGeometry>
        </mxCell>
        <mxCell id="46AwzzbZPbfPcskhHzXD-73" value="N" style="resizable=0;html=1;whiteSpace=wrap;align=right;verticalAlign=bottom;" connectable="0" vertex="1" parent="46AwzzbZPbfPcskhHzXD-72">
          <mxGeometry x="1" relative="1" as="geometry">
            <mxPoint x="15" as="offset" />
          </mxGeometry>
        </mxCell>
        <mxCell id="46AwzzbZPbfPcskhHzXD-75" value="Relationship" style="shape=rhombus;double=1;perimeter=rhombusPerimeter;whiteSpace=wrap;html=1;align=center;" vertex="1" parent="1">
          <mxGeometry x="360" y="750" width="105" height="60" as="geometry" />
        </mxCell>
        <mxCell id="46AwzzbZPbfPcskhHzXD-76" value="" style="shape=link;html=1;rounded=0;entryX=0;entryY=0.5;entryDx=0;entryDy=0;exitX=1;exitY=0.5;exitDx=0;exitDy=0;" edge="1" parent="1" source="46AwzzbZPbfPcskhHzXD-75" target="ie0-aMVQ24yn6wTCqgOi-5">
          <mxGeometry relative="1" as="geometry">
            <mxPoint x="470" y="790" as="sourcePoint" />
            <mxPoint x="570" y="890" as="targetPoint" />
          </mxGeometry>
        </mxCell>
        <mxCell id="46AwzzbZPbfPcskhHzXD-77" value="1" style="resizable=0;html=1;whiteSpace=wrap;align=right;verticalAlign=bottom;" connectable="0" vertex="1" parent="46AwzzbZPbfPcskhHzXD-76">
          <mxGeometry x="1" relative="1" as="geometry">
            <mxPoint x="-10" as="offset" />
          </mxGeometry>
        </mxCell>
      </root>
    </mxGraphModel>
  </diagram>
</mxfile>
